<svg height="512" width="512" xmlns="http://www.w3.org/2000/svg"><path d="M196 168.667h266c22.091 0 40 17.909 40 40v153.641c0 22.091-17.909 40-40 40h-51.534L376.002 462l-34.464-59.693H196c-22.091 0-40-17.909-40-40v-153.64c0-22.092 17.909-40 40-40z" fill="#ff7d97"/><path d="M316 50H50c-22.091 0-40 17.909-40 40v153.641c0 22.091 17.909 40 40 40h14l34.464 59.693 34.464-59.693H316c22.091 0 40-17.909 40-40V90c0-22.091-17.909-40-40-40z" fill="#ffcd69"/><g fill="#fff"><circle cx="279" cy="166.82" r="24"/><circle cx="183" cy="166.82" r="24"/><circle cx="87" cy="166.82" r="24"/></g><path d="M462 158.667h-96V90c0-27.57-22.43-50-50-50h-88c-5.523 0-10 4.477-10 10s4.477 10 10 10h88c16.542 0 30 13.458 30 30v153.641c0 16.542-13.458 30-30 30H132.927a10 10 0 0 0-8.66 5l-25.803 44.693-25.804-44.693a10 10 0 0 0-8.66-5H50c-16.542 0-30-13.458-30-30V90c0-16.542 13.458-30 30-30h88c5.523 0 10-4.477 10-10s-4.477-10-10-10H50C22.43 40 0 62.43 0 90v153.641c0 27.57 22.43 50 50 50h8.227l31.577 54.693a10 10 0 0 0 17.32 0l31.576-54.693h7.3v68.667c0 27.57 22.43 50 50 50h139.765L367.342 467a10 10 0 0 0 17.32 0l31.577-54.693H462c27.57 0 50-22.43 50-50v-153.64c0-27.571-22.43-50-50-50zm30 203.64c0 16.542-13.458 30-30 30h-51.534a10 10 0 0 0-8.66 5L376.002 442l-25.804-44.693a10 10 0 0 0-8.66-5H196c-16.542 0-30-13.458-30-30V293.64h150c27.57 0 50-22.43 50-50v-64.974h96c16.542 0 30 13.458 30 30z"/><path d="M313 166.82c0-18.747-15.252-34-34-34s-34 15.253-34 34c0 18.748 15.252 34 34 34s34-15.252 34-34zm-48 0c0-7.72 6.28-14 14-14s14 6.28 14 14-6.28 14-14 14-14-6.28-14-14zM183 200.82c18.748 0 34-15.252 34-34 0-18.747-15.252-34-34-34s-34 15.253-34 34c0 18.748 15.252 34 34 34zm0-48c7.72 0 14 6.28 14 14s-6.28 14-14 14-14-6.28-14-14 6.28-14 14-14zM53 166.82c0 18.748 15.252 34 34 34s34-15.252 34-34c0-18.747-15.252-34-34-34s-34 15.253-34 34zm48 0c0 7.72-6.28 14-14 14s-14-6.28-14-14 6.28-14 14-14 14 6.281 14 14zM183 60c2.63 0 5.21-1.07 7.069-2.93C191.93 55.21 193 52.63 193 50s-1.07-5.21-2.931-7.07C188.21 41.07 185.63 40 183 40s-5.21 1.07-7.07 2.93S173 47.37 173 50s1.069 5.21 2.93 7.07c1.86 1.86 4.44 2.93 7.07 2.93z"/></svg>